<svg version="1" xmlns="http://www.w3.org/2000/svg" width="682.667" height="682.667" viewBox="0 0 512.000000 512.000000"><path d="M294.2 70c-.4.3-2.9 6.8-5.6 14.5-6.3 18.4-11.2 32.5-17.9 51.5-19.6 55.5-45 127.7-51.2 145.5-4 11.5-9.9 28.2-13 37-3.1 8.8-7.6 21.6-10 28.5-2.4 6.9-6.4 18.3-9 25.5-2.6 7.1-5.1 14.3-5.6 15.9-.5 1.6-2 5.9-3.3 9.5-2.9 7.8-16.6 47.1-16.6 47.7 0 .2 12.5.4 27.8.4h27.8l1.6-4.8c.9-2.6 4.4-12.6 7.8-22.2 3.4-9.6 7.7-21.8 9.5-27 1.8-5.2 5.6-16 8.5-24 2.8-8 5.8-16.5 6.7-19 .8-2.5 5.7-16.5 10.9-31.1 5.2-14.7 9.4-27 9.4-27.4 0-.4.6-2.1 1.4-3.8.8-1.8 2.3-5.9 3.4-9.2 1.2-3.3 5.1-14.6 8.7-25 3.7-10.5 9.5-27.1 13-37 3.5-9.9 8.8-25 11.8-33.5 5.2-14.7 22.2-63.3 30.9-88 2.2-6.3 4.7-13.5 5.6-16 .9-2.5 1.4-4.5 1.2-4.6-.3 0 .1-.8.9-1.7.7-1 1.2-1.8 1-1.8-1.3-.4-55.2-.3-55.7.1z"/></svg>