<?xml version="1.0" standalone="no"?>
<!DOCTYPE svg PUBLIC "-//W3C//DTD SVG 20010904//EN"
 "http://www.w3.org/TR/2001/REC-SVG-20010904/DTD/svg10.dtd">
<svg version="1.0" xmlns="http://www.w3.org/2000/svg"
 width="512.000000pt" height="512.000000pt" viewBox="0 0 512.000000 512.000000"
 preserveAspectRatio="xMidYMid meet">
<metadata>
Created by potrace 1.11, written by Peter Selinger 2001-2013
</metadata>
<g transform="translate(0.000000,512.000000) scale(0.100000,-0.100000)"
fill="#000000" stroke="none">
<path d="M2890 4515 c-9 -22 -29 -74 -43 -115 -49 -143 -116 -336 -177 -510
-34 -96 -79 -224 -100 -285 -21 -60 -64 -182 -95 -270 -31 -88 -62 -178 -70
-200 -7 -22 -41 -119 -75 -215 -58 -164 -170 -483 -245 -700 -66 -188 -165
-470 -264 -755 -56 -159 -135 -384 -176 -500 -111 -318 -133 -378 -140 -397
-7 -17 14 -18 353 -18 333 0 360 1 367 18 4 9 38 105 75 212 89 255 272 779
315 900 144 409 415 1182 481 1374 78 225 107 306 124 351 10 28 55 156 100
285 45 129 111 318 147 420 124 353 145 415 146 430 2 13 -45 15 -352 15
l-353 1 -18 -41z"/>
</g>
</svg>
