<?xml version="1.0" standalone="no"?>
<!DOCTYPE svg PUBLIC "-//W3C//DTD SVG 20010904//EN"
 "http://www.w3.org/TR/2001/REC-SVG-20010904/DTD/svg10.dtd">
<svg version="1.0" xmlns="http://www.w3.org/2000/svg"
 width="512.000000pt" height="512.000000pt" viewBox="0 0 512.000000 512.000000"
 preserveAspectRatio="xMidYMid meet">
<metadata>
Created by potrace 1.11, written by Peter Selinger 2001-2013
</metadata>
<g transform="translate(0.000000,512.000000) scale(0.100000,-0.100000)"
fill="#000000" stroke="none">
<path d="M3101 4888 c-15 -41 -102 -291 -122 -353 -11 -33 -23 -67 -26 -75 -3
-8 -7 -19 -9 -25 -2 -5 -26 -75 -55 -155 -28 -80 -68 -194 -89 -255 -21 -60
-64 -182 -95 -270 -31 -88 -61 -171 -65 -185 -5 -14 -34 -97 -65 -185 -31 -88
-78 -223 -105 -300 -27 -77 -72 -205 -100 -285 -28 -80 -62 -176 -75 -215 -13
-38 -63 -180 -111 -315 -82 -233 -118 -335 -148 -425 -13 -38 -117 -334 -193
-550 -20 -55 -64 -181 -98 -280 -105 -302 -273 -779 -280 -798 -7 -16 9 -17
275 -15 l282 3 58 165 c32 91 106 302 165 470 108 309 147 421 209 598 19 53
130 369 246 702 242 692 326 929 334 950 3 8 69 197 147 420 77 223 167 479
199 570 32 91 67 194 79 230 13 36 26 74 31 85 5 11 18 47 28 80 20 58 134
382 147 418 7 16 -10 17 -274 17 l-281 0 -9 -22z"/>
</g>
</svg>
